<svg xmlns="http://www.w3.org/2000/svg" viewBox="0 0 420 64" width="420" height="64">
  <title>market-data-bridge — Lockup (Dark)</title>

  <!-- Mark -->
  <g transform="translate(4, 4) scale(0.875)">
    <!-- Sources -->
    <rect x="7" y="7"  width="14" height="14" rx="2" fill="#475569"/>
    <rect x="7" y="25" width="14" height="14" rx="2" fill="#64748b"/>
    <rect x="7" y="43" width="14" height="14" rx="2" fill="#334155"/>
    <!-- Bridge -->
    <rect x="25" y="7"  width="14" height="14" rx="2" fill="none" stroke="#94a3b8" stroke-width="1.5"/>
    <rect x="25" y="25" width="14" height="14" rx="2" fill="none" stroke="#94a3b8" stroke-width="1.5"/>
    <rect x="25" y="43" width="14" height="14" rx="2" fill="none" stroke="#94a3b8" stroke-width="1.5"/>
    <!-- Output -->
    <rect x="43" y="7"  width="14" height="14" rx="2.5" fill="#10b981" fill-opacity="0.2" stroke="#10b981" stroke-width="1.5"/>
    <rect x="43" y="25" width="14" height="14" rx="2.5" fill="#10b981" fill-opacity="0.2" stroke="#10b981" stroke-width="1.5"/>
    <rect x="43" y="43" width="14" height="14" rx="2.5" fill="#10b981" fill-opacity="0.2" stroke="#10b981" stroke-width="1.5"/>
    <circle cx="50" cy="14" r="2.5" fill="#10b981"/>
    <circle cx="50" cy="32" r="2.5" fill="#10b981"/>
    <circle cx="50" cy="50" r="2.5" fill="#10b981"/>
  </g>

  <!-- Separator -->
  <line x1="68" y1="12" x2="68" y2="52" stroke="#334155" stroke-width="1"/>

  <!-- Wordmark -->
  <text x="80" y="37" font-family="'SF Mono', 'Cascadia Code', 'JetBrains Mono', 'Consolas', monospace" font-size="20" fill="#e2e8f0" font-weight="500" letter-spacing="-0.5">market-data-bridge</text>
  <text x="80" y="54" font-family="'SF Mono', 'Cascadia Code', 'JetBrains Mono', 'Consolas', monospace" font-size="10" fill="#64748b" letter-spacing="0.5">structured data layer for AI trading tools</text>
</svg>
