<svg xmlns="http://www.w3.org/2000/svg" viewBox="0 0 420 64" width="420" height="64">
  <title>market-data-bridge — Lockup (Light)</title>
  <!-- Iter 5: flow connectors in mark, light-mode colors -->

  <!-- Mark -->
  <g transform="translate(4, 4) scale(0.875)">
    <!-- Sources (light-mode tones) -->
    <rect x="5" y="5"  width="14" height="14" rx="2" fill="#e2e8f0"/>
    <rect x="5" y="25" width="14" height="14" rx="2" fill="#cbd5e1"/>
    <rect x="5" y="45" width="14" height="14" rx="2" fill="#94a3b8"/>
    <!-- Flow: source → bridge -->
    <line x1="20" y1="12" x2="24" y2="12" stroke="#94a3b8" stroke-width="1" opacity="0.4"/>
    <line x1="20" y1="32" x2="24" y2="32" stroke="#94a3b8" stroke-width="1" opacity="0.4"/>
    <line x1="20" y1="52" x2="24" y2="52" stroke="#94a3b8" stroke-width="1" opacity="0.4"/>
    <!-- Bridge -->
    <rect x="25" y="5"  width="14" height="14" rx="2" fill="none" stroke="#64748b" stroke-width="1.5"/>
    <rect x="25" y="25" width="14" height="14" rx="2" fill="none" stroke="#64748b" stroke-width="1.5"/>
    <rect x="25" y="45" width="14" height="14" rx="2" fill="none" stroke="#64748b" stroke-width="1.5"/>
    <!-- Flow: bridge → output -->
    <line x1="40" y1="12" x2="44" y2="12" stroke="#059669" stroke-width="1" opacity="0.35"/>
    <line x1="40" y1="32" x2="44" y2="32" stroke="#059669" stroke-width="1" opacity="0.35"/>
    <line x1="40" y1="52" x2="44" y2="52" stroke="#059669" stroke-width="1" opacity="0.35"/>
    <!-- Output -->
    <rect x="45" y="5"  width="14" height="14" rx="2.5" fill="#059669" fill-opacity="0.15" stroke="#059669" stroke-width="1.5"/>
    <rect x="45" y="25" width="14" height="14" rx="2.5" fill="#059669" fill-opacity="0.15" stroke="#059669" stroke-width="1.5"/>
    <rect x="45" y="45" width="14" height="14" rx="2.5" fill="#059669" fill-opacity="0.15" stroke="#059669" stroke-width="1.5"/>
    <circle cx="52" cy="12" r="3" fill="#059669"/>
    <circle cx="52" cy="32" r="3" fill="#059669"/>
    <circle cx="52" cy="52" r="3" fill="#059669"/>
  </g>

  <!-- Separator -->
  <line x1="68" y1="12" x2="68" y2="52" stroke="#e2e8f0" stroke-width="1"/>

  <!-- Wordmark -->
  <text x="80" y="35" font-family="'SF Mono', 'Cascadia Code', 'JetBrains Mono', 'Consolas', monospace" font-size="20" fill="#0f172a" font-weight="500" letter-spacing="-0.5">market-data-bridge</text>
  <text x="80" y="52" font-family="'SF Mono', 'Cascadia Code', 'JetBrains Mono', 'Consolas', monospace" font-size="10" fill="#64748b" letter-spacing="0.5">structured data layer for AI trading tools</text>
</svg>
