<svg xmlns="http://www.w3.org/2000/svg" viewBox="0 0 1200 630" width="1200" height="630">
  <title>market-data-bridge — Social/OG Card (1200x630)</title>
  <!-- Iter 4: tighter mark-to-text gap, consistent separators, updated mark -->
  <rect width="1200" height="630" fill="#0f172a"/>

  <!-- Subtle data grid background -->
  <g opacity="0.025">
    <rect x="0" y="50"  width="1200" height="1" fill="#10b981"/>
    <rect x="0" y="100" width="1200" height="1" fill="#10b981"/>
    <rect x="0" y="150" width="1200" height="1" fill="#10b981"/>
    <rect x="0" y="200" width="1200" height="1" fill="#10b981"/>
    <rect x="0" y="250" width="1200" height="1" fill="#10b981"/>
    <rect x="0" y="300" width="1200" height="1" fill="#10b981"/>
    <rect x="0" y="350" width="1200" height="1" fill="#10b981"/>
    <rect x="0" y="400" width="1200" height="1" fill="#10b981"/>
    <rect x="0" y="450" width="1200" height="1" fill="#10b981"/>
    <rect x="0" y="500" width="1200" height="1" fill="#10b981"/>
    <rect x="0" y="550" width="1200" height="1" fill="#10b981"/>
  </g>

  <!-- Large mark (updated Iter 3, tighter position) -->
  <g transform="translate(80, 140) scale(4.5)">
    <rect x="5" y="5"  width="14" height="14" rx="2" fill="#334155"/>
    <rect x="5" y="25" width="14" height="14" rx="2" fill="#475569"/>
    <rect x="5" y="45" width="14" height="14" rx="2" fill="#64748b"/>
    <rect x="25" y="5"  width="14" height="14" rx="2" fill="none" stroke="#94a3b8" stroke-width="1.5"/>
    <rect x="25" y="25" width="14" height="14" rx="2" fill="none" stroke="#94a3b8" stroke-width="1.5"/>
    <rect x="25" y="45" width="14" height="14" rx="2" fill="none" stroke="#94a3b8" stroke-width="1.5"/>
    <rect x="45" y="5"  width="14" height="14" rx="2.5" fill="#10b981" fill-opacity="0.3" stroke="#10b981" stroke-width="1.5"/>
    <rect x="45" y="25" width="14" height="14" rx="2.5" fill="#10b981" fill-opacity="0.3" stroke="#10b981" stroke-width="1.5"/>
    <rect x="45" y="45" width="14" height="14" rx="2.5" fill="#10b981" fill-opacity="0.3" stroke="#10b981" stroke-width="1.5"/>
    <circle cx="52" cy="12" r="3" fill="#10b981"/>
    <circle cx="52" cy="32" r="3" fill="#10b981"/>
    <circle cx="52" cy="52" r="3" fill="#10b981"/>
  </g>

  <!-- Title (tighter gap to mark) -->
  <text x="400" y="250" font-family="'SF Mono', 'Cascadia Code', 'JetBrains Mono', 'Consolas', monospace" font-size="56" fill="#e2e8f0" font-weight="600" letter-spacing="-1.5">market-data-bridge</text>

  <!-- Tagline -->
  <text x="400" y="305" font-family="'SF Mono', 'Cascadia Code', 'JetBrains Mono', 'Consolas', monospace" font-size="20" fill="#64748b" letter-spacing="0.3">Connect brokerage data to AI assistants</text>

  <!-- Feature row (consistent font-family for separators) -->
  <text x="400" y="360" font-family="'SF Mono', 'Cascadia Code', 'JetBrains Mono', monospace" font-size="16" fill="#10b981">MCP + REST</text>
  <text x="517" y="360" font-family="'SF Mono', 'Cascadia Code', 'JetBrains Mono', monospace" font-size="16" fill="#334155">·</text>
  <text x="535" y="360" font-family="'SF Mono', 'Cascadia Code', 'JetBrains Mono', monospace" font-size="16" fill="#8b5cf6">3-model eval engine</text>
  <text x="730" y="360" font-family="'SF Mono', 'Cascadia Code', 'JetBrains Mono', monospace" font-size="16" fill="#334155">·</text>
  <text x="748" y="360" font-family="'SF Mono', 'Cascadia Code', 'JetBrains Mono', monospace" font-size="16" fill="#f59e0b">75 tools</text>
  <text x="843" y="360" font-family="'SF Mono', 'Cascadia Code', 'JetBrains Mono', monospace" font-size="16" fill="#334155">·</text>
  <text x="861" y="360" font-family="'SF Mono', 'Cascadia Code', 'JetBrains Mono', monospace" font-size="16" fill="#94a3b8">IBKR + Yahoo Finance</text>

  <!-- Version badge -->
  <rect x="400" y="390" width="55" height="22" rx="3" fill="#10b981" fill-opacity="0.1" stroke="#10b981" stroke-width="1" stroke-opacity="0.3"/>
  <text x="427" y="405" text-anchor="middle" font-family="'SF Mono', monospace" font-size="11" fill="#10b981">v3.0</text>

  <rect x="464" y="390" width="80" height="22" rx="3" fill="#334155" stroke="#475569" stroke-width="1"/>
  <text x="504" y="405" text-anchor="middle" font-family="'SF Mono', monospace" font-size="11" fill="#94a3b8">TypeScript</text>

  <!-- Bottom accent -->
  <rect x="0" y="620" width="1200" height="10" fill="#10b981" opacity="0.4"/>
</svg>
