<svg xmlns="http://www.w3.org/2000/svg" viewBox="0 0 400 80" width="400" height="80">
  <title>Direction 2: The Ensemble Grid — Light lockup</title>
  <rect width="400" height="80" fill="#f8fafc" rx="4"/>

  <!-- Mark -->
  <g transform="translate(16, 8)">
    <rect x="0" y="0" width="16" height="16" rx="2" fill="#e2e8f0"/>
    <rect x="20" y="0" width="16" height="16" rx="2" fill="#e2e8f0"/>
    <rect x="40" y="0" width="16" height="16" rx="2" fill="#e2e8f0"/>
    <rect x="0" y="20" width="16" height="16" rx="2" fill="#e2e8f0"/>
    <rect x="20" y="20" width="16" height="16" rx="2" fill="#e2e8f0"/>
    <rect x="40" y="20" width="16" height="16" rx="2" fill="#e2e8f0"/>
    <rect x="0" y="40" width="16" height="16" rx="2.5" fill="#059669" fill-opacity="0.15" stroke="#059669" stroke-width="1.5"/>
    <rect x="20" y="40" width="16" height="16" rx="2.5" fill="#059669" fill-opacity="0.15" stroke="#059669" stroke-width="1.5"/>
    <rect x="40" y="40" width="16" height="16" rx="2.5" fill="#059669" fill-opacity="0.15" stroke="#059669" stroke-width="1.5"/>
    <circle cx="8" cy="8" r="3" fill="#059669" opacity="0.7"/>
    <circle cx="28" cy="8" r="3" fill="#7c3aed" opacity="0.7"/>
    <circle cx="48" cy="8" r="3" fill="#d97706" opacity="0.7"/>
    <circle cx="8" cy="28" r="3.5" fill="#059669" opacity="0.5"/>
    <circle cx="28" cy="28" r="3" fill="#7c3aed" opacity="0.5"/>
    <circle cx="48" cy="28" r="4" fill="#d97706" opacity="0.5"/>
    <circle cx="8" cy="48" r="3.5" fill="#059669"/>
    <circle cx="28" cy="48" r="3.5" fill="#059669"/>
    <circle cx="48" cy="48" r="3.5" fill="#059669"/>
  </g>

  <!-- Wordmark -->
  <text x="85" y="38" font-family="'SF Mono', 'Cascadia Code', 'JetBrains Mono', 'Consolas', monospace" font-size="18" fill="#0f172a" font-weight="500" letter-spacing="-0.5">market-data-bridge</text>
  <text x="85" y="54" font-family="'SF Mono', 'Cascadia Code', 'JetBrains Mono', 'Consolas', monospace" font-size="10" fill="#64748b" letter-spacing="0.5">structured data layer for AI trading tools</text>
</svg>
