<svg xmlns="http://www.w3.org/2000/svg" viewBox="0 0 64 64" width="64" height="64">
  <title>Direction 1: The Join — Mark only</title>
  <!-- Three input sources converge through a schema grid to enriched output -->
  <!-- Background: none (transparent) -->

  <!-- Three input lines (data sources: IBKR, Yahoo, CSV) -->
  <line x1="4" y1="14" x2="20" y2="26" stroke="#64748b" stroke-width="2.5" stroke-linecap="round"/>
  <line x1="4" y1="32" x2="20" y2="32" stroke="#64748b" stroke-width="2.5" stroke-linecap="round"/>
  <line x1="4" y1="50" x2="20" y2="38" stroke="#64748b" stroke-width="2.5" stroke-linecap="round"/>

  <!-- Source dots -->
  <circle cx="4" cy="14" r="2.5" fill="#64748b"/>
  <circle cx="4" cy="32" r="2.5" fill="#64748b"/>
  <circle cx="4" cy="50" r="2.5" fill="#64748b"/>

  <!-- Bridge node — the join/schema alignment -->
  <rect x="20" y="23" width="18" height="18" rx="2.5" fill="none" stroke="#10b981" stroke-width="2"/>
  <!-- Grid lines inside the bridge (schema structure) -->
  <line x1="26" y1="23" x2="26" y2="41" stroke="#10b981" stroke-width="0.75" opacity="0.5"/>
  <line x1="32" y1="23" x2="32" y2="41" stroke="#10b981" stroke-width="0.75" opacity="0.5"/>
  <line x1="20" y1="29" x2="38" y2="29" stroke="#10b981" stroke-width="0.75" opacity="0.5"/>
  <line x1="20" y1="35" x2="38" y2="35" stroke="#10b981" stroke-width="0.75" opacity="0.5"/>

  <!-- Output line (enriched — thicker, emerald) -->
  <line x1="38" y1="32" x2="58" y2="32" stroke="#10b981" stroke-width="3.5" stroke-linecap="round"/>
  <!-- Enrichment tick marks on output -->
  <line x1="45" y1="28" x2="45" y2="36" stroke="#e2e8f0" stroke-width="1.25"/>
  <line x1="50" y1="28" x2="50" y2="36" stroke="#e2e8f0" stroke-width="1.25"/>
  <line x1="55" y1="28" x2="55" y2="36" stroke="#e2e8f0" stroke-width="1.25"/>
</svg>
