<svg xmlns="http://www.w3.org/2000/svg" viewBox="0 0 400 80" width="400" height="80">
  <title>Direction 1: The Join — Light lockup</title>
  <rect width="400" height="80" fill="#f8fafc" rx="4"/>

  <!-- Mark -->
  <g transform="translate(16, 12) scale(0.875)">
    <line x1="4" y1="14" x2="20" y2="26" stroke="#94a3b8" stroke-width="2.5" stroke-linecap="round"/>
    <line x1="4" y1="32" x2="20" y2="32" stroke="#94a3b8" stroke-width="2.5" stroke-linecap="round"/>
    <line x1="4" y1="50" x2="20" y2="38" stroke="#94a3b8" stroke-width="2.5" stroke-linecap="round"/>
    <circle cx="4" cy="14" r="2.5" fill="#94a3b8"/>
    <circle cx="4" cy="32" r="2.5" fill="#94a3b8"/>
    <circle cx="4" cy="50" r="2.5" fill="#94a3b8"/>
    <rect x="20" y="23" width="18" height="18" rx="2.5" fill="none" stroke="#059669" stroke-width="2"/>
    <line x1="26" y1="23" x2="26" y2="41" stroke="#059669" stroke-width="0.75" opacity="0.5"/>
    <line x1="32" y1="23" x2="32" y2="41" stroke="#059669" stroke-width="0.75" opacity="0.5"/>
    <line x1="20" y1="29" x2="38" y2="29" stroke="#059669" stroke-width="0.75" opacity="0.5"/>
    <line x1="20" y1="35" x2="38" y2="35" stroke="#059669" stroke-width="0.75" opacity="0.5"/>
    <line x1="38" y1="32" x2="58" y2="32" stroke="#059669" stroke-width="3.5" stroke-linecap="round"/>
    <line x1="45" y1="28" x2="45" y2="36" stroke="#1e293b" stroke-width="1.25"/>
    <line x1="50" y1="28" x2="50" y2="36" stroke="#1e293b" stroke-width="1.25"/>
    <line x1="55" y1="28" x2="55" y2="36" stroke="#1e293b" stroke-width="1.25"/>
  </g>

  <!-- Wordmark -->
  <text x="85" y="46" font-family="'SF Mono', 'Cascadia Code', 'JetBrains Mono', 'Consolas', monospace" font-size="18" fill="#0f172a" font-weight="500" letter-spacing="-0.5">market-data-bridge</text>
  <text x="85" y="62" font-family="'SF Mono', 'Cascadia Code', 'JetBrains Mono', 'Consolas', monospace" font-size="10" fill="#64748b" letter-spacing="0.5">structured data layer for AI trading tools</text>
</svg>
